<svg id="Layer_1" data-name="Layer 1" xmlns="http://www.w3.org/2000/svg" version="1.1" viewBox="0 0 1024 1024">
  <defs>
    <style>
      .cls-1 {
        fill: #e0e0e0;
      }

      .cls-1, .cls-2, .cls-3 {
        stroke-width: 0px;
      }

      .cls-2 {
        fill: #1098ad;
      }

      .cls-3 {
        fill: #fff;
      }

      .cls-4 {
        display: none;
      }
    </style>
  </defs>
  <rect class="cls-2" x="0" y="0" width="1023.9" height="1023.9" rx="499.2" ry="499.2"/>
  <g class="cls-4">
    <path class="cls-3" d="M745.9,328.6c72.4-2.8,79.8,104.3,6.1,109.5-70.2,3.1-81.7-100.8-6.1-109.5Z"/>
    <path class="cls-3" d="M855.7,794.9c-4.4-52.9-46.5-66.1-92.3-65.9v-268.6c-13.5,1.5-21.9,1.6-35.3,0-.4,7.9,0,15.9,0,23.9v225.4c0,6.4.4,12.9,0,19.3h-170.1c-28.2,0-56.6-.7-84.8,0,119.5-68,133-223.9,27.8-312.7-6.8-5.8-14.5-10.5-21.1-16.5h192.5c-2.7-10.9-4.6-24.4,0-35h-150.8c-22.6,0-45.4.7-68,0v-115.3c0-19.2.6-38.6,0-57.8,42.5,1.7,29.5-32.7,14.3-34.7-8.3-1.1-17.2-.5-25.7-.5h-111.6c-10.9,0-22-.5-32.9,0-20.5,3.1-26,38.3,12.3,35.2v133.7c0,22.6-.4,45.3,0,67.8-13.3,8-26.3,16.2-38.4,26-102.7,83.7-93.3,241.4,18,309.8h-32.6c-47.8,0-89.1,18.5-89,72.4,0,31,24.4,25.5,45.8,25.5h592.8c27.4,0,52.5,8.3,49.1-32.1h0ZM344,191.7h75.9v91.5h-75.9v-91.5h0Z"/>
    <path class="cls-2" d="M379.5,350.6c33.2-2.2,25,23.9,8.8,25.2-5.8.3-13.1,1-18.3-2.1-12-7.3-4.5-20.2,9.4-23.1h.1Z"/>
    <path class="cls-2" d="M362.9,566.2c28.2-2.2,14.5,74-46.2,74.1-15.4-.2-19.8-16.4-6.8-25.1,57.3-.5,30-42.7,53-49Z"/>
    <path class="cls-2" d="M473.2,602.2c9.7-.2,18.6,8,14,18.2-5.5,11.8-40.8,4-43.2,38.2-.8,10.7,2.8,18.9-9.7,23.3-26.9,6.9-22.6-74,39-79.8h0Z"/>
  </g>
  <g class="cls-4">
    <path class="cls-3" d="M367.3,87.2c31.3.7,62.6,0,93.9,0h187.9v60.8h-61.7c-.8,11.8,0,23.9,0,35.7v278c10.8,3.5,21.3,8.7,31.3,13.9,177.9,93.5,178.7,330.7,7,432.3-112,59.5-247.8,25-317-81.8-72.7-112.3-36.9-262.8,72.3-336.9,16.6-11.3,34.7-19.5,51.5-30.3.4-20.3,0-40.6,0-60.9v-207.7c0-14,.8-28.3,0-42.3h-65.1v-60.8Z"/>
  </g>
  <g>
    <path class="cls-3" d="M645.3,402c9.4-.4,18.9,0,28.3,0h98.9c14.6,0,37.9-3.3,42.7,15.3,3.4,13.1-6.1,22.4-18.1,25.1h-133.3c-8.2.1-19.6,2-26.9-2.6-17.6-10.9-12.2-34.2,8.4-37.8Z"/>
    <path class="cls-3" d="M773.6,461c3.6,0,6.5,2.8,6.6,6.4.3,20.1-.3,80-.3,81.7v41.9c0,24.6,2.9,22.3,14.9,45.1l39.2,73.8c7.5,13.9,18,31,23.6,45.3,12.5,31.6-9.8,69.4-41.5,78.6-24.9,7.2-51.6,4.6-77.2,4.6h-75.7c-24.6.2-47.1-4.1-65.3-22-37-36.7-11.3-68,7.2-103,13.1-24.8,25.8-49.9,39.1-74.6,16.4-30.5,16-20,15.9-53.8v-117.5c0-3.6,2.9-6.5,6.5-6.5h72.7c11.4,0,22.8.2,34.2,0Z"/>
    <path class="cls-3" d="M599.2,838.3c-10-.9-20.7,0-30.8,0H244.8c-12,0-25.5,1.1-37.2-1.5-48.7-10.8-44.6-56.6-44.6-93.8v-476.8c0-11.4-.9-24,1.9-35.1,11.7-47.4,51.4-45.1,88.3-45h279.8c9.1,0,50.3-3.4,52.8,3,9.9,4.6,61.1,58.5,72,69.7,3.2,3.3,30.2,31.5,30.9,31.8,5.9.6,2.9,19.6,2.9,25.6v68.8s-30.6,0-30.6,0c-7.3,0-15.2-.6-22.4.9-44.9,9.7-35.8,70.1,4.3,75.8v98.8c0,15.2-.4,30.5,0,45.7-6.1,11.7-14,23.9-20.2,35.8l-33.8,64.2c-18,35.1-40.5,59.8-20.3,100.8,6,12.2,17.1,26.9,30.4,31.4ZM248,500.9c-11.4,4.9-13.1,17.5-2.2,20.8,4.3,1.3,19.5.5,25.3.5h297.8c12-3,10.8-15.2,2.5-21.3H248ZM250.6,611.2c-6.4.2-9.7,3.4-11.8,9.1,2.3,7.7,3.8,11.8,12.3,12.2,11.5.5,23.1,0,34.6,0h281.8c10.2,0,13.8-12.5,6.1-19-5.8-4.9-61.7-2.3-72.7-2.3h-236.8c-4.4,0-9-.4-13.4,0ZM248,755.2c-9.8,3-11,11.9-5,19.7v.2c10,4.1,22.5,1.7,33,1.7h245.1c8.6-1.2,10.3-15.4,3.4-20-5.3-3.5-25.1-1.5-31.7-1.5h-232.3c-4,0-8.5.3-12.4,0ZM248,683.7c-5,1.4-6.9,3.5-9.2,7.9.3,9.3,3.5,12.8,12.6,13.3,14.1.6,28.3,0,42.4,0h178.2c16.3,0,32.7.5,49,0,11.9-4.2,8.7-14.3,2.2-21.2-6.7-.7-13.8-.1-20.6,0h-233.6c-6.9,0-14.3.7-21.1,0ZM294.7,286.1c-56.2,6.1-46.5,86.6,7.3,81.8,58-11.5,39.5-87-7.3-81.8ZM438.3,390.6h-53.9c-3,2.8-6,5.6-6.1,9.9-.5,13.3,15.7,11.2,24.2,11.2h114.5s35.1,0,35.1,0c14.2,0,36.1-1,21.1-21.2-5.6-.5-11.2,0-16.8,0h-118.1Z"/>
    <path class="cls-1" d="M585.9,189.1c9.9,4.6,61.1,58.5,72,69.7,3.2,3.3,30.2,31.5,30.9,31.8-4.8.9-18.9,0-24.7,0h-78.2s0-67.4,0-67.4c0-11.3-.5-22.7,0-34Z"/>
  </g>
</svg>