<?xml version="1.0" encoding="UTF-8"?>
<svg id="Layer_1" data-name="Layer 1" xmlns="http://www.w3.org/2000/svg" version="1.1" viewBox="0 0 1178.51 356.17">
  <defs>
    <style>
      .cls-1, .cls-2 {
        fill: #127984;
      }

      .cls-1, .cls-3, .cls-4 {
        stroke-width: 0px;
      }

      .cls-5 {
        font-family: OpenSans-Light, 'Open Sans';
        font-size: 80px;
        font-weight: 300;
      }

      .cls-5, .cls-4 {
        fill: #6d6d6d;
      }

      .cls-3, .cls-6 {
        fill: #1098ad;
      }

      .cls-7 {
        font-family: OpenSans-Bold, 'Open Sans';
        font-size: 142.69px;
        font-weight: 700;
      }

      .cls-8 {
        letter-spacing: .37em;
      }

      .cls-9 {
        letter-spacing: .37em;
      }
    </style>
  </defs>
  <g>
    <path class="cls-3" d="M242.9,130.75c4.04-.17,8.13,0,12.17,0h42.55c6.28,0,16.3-1.42,18.37,6.58,1.46,5.64-2.62,9.64-7.79,10.8h-57.35c-3.53.04-8.43.86-11.57-1.12-7.57-4.69-5.25-14.71,3.61-16.26h0Z"/>
    <path class="cls-3" d="M298.09,156.13c1.55,0,2.8,1.2,2.84,2.75.13,8.65-.13,34.42-.13,35.15v18.03c0,10.58,1.25,9.59,6.41,19.4l16.86,31.75c3.23,5.98,7.74,13.34,10.15,19.49,5.38,13.59-4.22,29.86-17.85,33.81-10.71,3.1-22.2,1.98-33.21,1.98h-32.57c-10.58.09-20.26-1.76-28.09-9.46-15.92-15.79-4.86-29.25,3.1-44.31,5.64-10.67,11.1-21.47,16.82-32.09,7.06-13.12,6.88-8.6,6.84-23.14v-50.55c0-1.55,1.25-2.8,2.8-2.8h31.28c4.9,0,9.81.09,14.71,0h.04Z"/>
    <path class="cls-3" d="M223.07,318.45c-4.3-.39-8.91,0-13.25,0H70.6c-5.16,0-10.97.47-16-.65-20.95-4.65-19.19-24.35-19.19-40.35V72.33c0-4.9-.39-10.32.82-15.1,5.03-20.39,22.11-19.4,37.99-19.36h120.37c3.91,0,21.64-1.46,22.71,1.29,4.26,1.98,26.29,25.17,30.97,29.99,1.38,1.42,12.99,13.55,13.29,13.68,2.54.26,1.25,8.43,1.25,11.01v29.6h-13.16c-3.14,0-6.54-.26-9.64.39-19.32,4.17-15.4,30.16,1.85,32.61v42.5c0,6.54-.17,13.12,0,19.66-2.62,5.03-6.02,10.28-8.69,15.4l-14.54,27.62c-7.74,15.1-17.42,25.73-8.73,43.36,2.58,5.25,7.36,11.57,13.08,13.51l.09-.04ZM71.98,173.3c-4.9,2.11-5.64,7.53-.95,8.95,1.85.56,8.39.22,10.88.22h128.11c5.16-1.29,4.65-6.54,1.08-9.16H71.98ZM73.1,220.75c-2.75.09-4.17,1.46-5.08,3.91.99,3.31,1.63,5.08,5.29,5.25,4.95.22,9.94,0,14.89,0h121.23c4.39,0,5.94-5.38,2.62-8.17-2.5-2.11-26.54-.99-31.28-.99h-101.87c-1.89,0-3.87-.17-5.76,0h-.04ZM71.98,282.7c-4.22,1.29-4.73,5.12-2.15,8.47v.09c4.3,1.76,9.68.73,14.2.73h105.44c3.7-.52,4.43-6.63,1.46-8.6-2.28-1.51-10.8-.65-13.64-.65h-99.94c-1.72,0-3.66.13-5.33,0l-.04-.04ZM71.98,251.94c-2.15.6-2.97,1.51-3.96,3.4.13,4,1.51,5.51,5.42,5.72,6.07.26,12.17,0,18.24,0h76.66c7.01,0,14.07.22,21.08,0,5.12-1.81,3.74-6.15.95-9.12-2.88-.3-5.94-.04-8.86,0h-100.5c-2.97,0-6.15.3-9.08,0h.04ZM92.07,80.89c-24.18,2.62-20,37.26,3.14,35.19,24.95-4.95,16.99-37.43-3.14-35.19h0ZM153.85,125.85h-23.19c-1.29,1.2-2.58,2.41-2.62,4.26-.22,5.72,6.75,4.82,10.41,4.82h64.36c6.11,0,15.53-.43,9.08-9.12-2.41-.22-4.82,0-7.23,0h-50.81v.04Z"/>
    <path class="cls-1" d="M217.34,39.16c4.26,1.98,26.29,25.17,30.97,29.99,1.38,1.42,12.99,13.55,13.29,13.68-2.06.39-8.13,0-10.63,0h-33.64v-29c0-4.86-.22-9.77,0-14.63v-.04Z"/>
  </g>
  <text class="cls-7" transform="translate(402.18 176.26)"><tspan class="cls-6" x="0" y="0">Lab</tspan><tspan class="cls-2" x="257.09" y="0">Report</tspan></text>
  <rect class="cls-4" x="415" y="263.39" width="42.89" height="4.07" rx="1.83" ry="1.83"/>
  <rect class="cls-4" x="1095.67" y="263.39" width="42.89" height="4.07" rx="1.83" ry="1.83"/>
  <text class="cls-5" transform="translate(508.16 289.46)"><tspan x="0" y="0">S</tspan><tspan class="cls-9" x="43.63" y="0"> </tspan><tspan x="94.35" y="0">Y</tspan><tspan class="cls-8" x="136.57" y="0"> </tspan><tspan x="187.29" y="0">S</tspan><tspan class="cls-9" x="230.92" y="0"> </tspan><tspan x="281.63" y="0">T</tspan><tspan class="cls-8" x="323.59" y="0"> </tspan><tspan x="374.3" y="0">E</tspan><tspan class="cls-9" x="418.48" y="0"> </tspan><tspan x="469.19" y="0">M</tspan></text>
</svg>